HIERARCHY
ROOT hip
{
  OFFSET 0 0 0
  CHANNELS 6 Xposition Yposition Zposition Zrotation Yrotation Xrotation
  JOINT abdomen
  {
    OFFSET 0 20.6881 -0.73152
    CHANNELS 3 Zrotation Xrotation Yrotation
    JOINT chest
    {
      OFFSET 0 11.7043 -0.48768
      CHANNELS 3 Zrotation Xrotation Yrotation
      JOINT neck
      {
        OFFSET 0 22.1894 -2.19456
        CHANNELS 3 Zrotation Xrotation Yrotation
        JOINT head
        {
          OFFSET -0.24384 7.07133 1.2192
          CHANNELS 3 Zrotation Xrotation Yrotation
          JOINT leftEye
          {
            OFFSET 4.14528 8.04674 8.04672
            CHANNELS 3 Zrotation Xrotation Yrotation
            End Site
            {
              OFFSET 1 0 0
            }
          }
          JOINT rightEye
          {
            OFFSET -3.6576 8.04674 8.04672
            CHANNELS 3 Zrotation Xrotation Yrotation
            End Site
            {
              OFFSET 1 0 0
            }
          }
        }
      }
      JOINT rCollar
      {
        OFFSET -2.68224 19.2634 -4.8768
        CHANNELS 3 Zrotation Xrotation Yrotation
        JOINT rShldr
        {
          OFFSET -8.77824 -1.95073 1.46304
          CHANNELS 3 Zrotation Xrotation Yrotation
          JOINT rForeArm
          {
            OFFSET -28.1742 -1.7115 0.48768
            CHANNELS 3 Zrotation Xrotation Yrotation
            JOINT rHand
            {
              OFFSET -22.5879 0.773209 7.07136
              CHANNELS 3 Zrotation Xrotation Yrotation
              JOINT rThumb1
              {
                OFFSET -1.2192 -0.487915 3.41376
                CHANNELS 3 Zrotation Xrotation Yrotation
                JOINT rThumb2
                {
                  OFFSET -3.37035 -0.52449 3.41376
                  CHANNELS 3 Zrotation Xrotation Yrotation
                  End Site
                  {
                    OFFSET -1.78271 -1.18214 1.43049
                  }
                }
              }
              JOINT rIndex1
              {
                OFFSET -7.75947 0.938293 5.60832
                CHANNELS 3 Zrotation Xrotation Yrotation
                JOINT rIndex2
                {
                  OFFSET -2.54057 -0.884171 1.56538
                  CHANNELS 3 Zrotation Xrotation Yrotation
                  End Site
                  {
                    OFFSET -1.62519 -0.234802 1.16502
                  }
                }
              }
              JOINT rMid1
              {
                OFFSET -8.24714 1.18213 3.41376
                CHANNELS 3 Zrotation Xrotation Yrotation
                JOINT rMid2
                {
                  OFFSET -3.10165 -0.590103 1.0647
                  CHANNELS 3 Zrotation Xrotation Yrotation
                  End Site
                  {
                    OFFSET -2.48547 -0.328903 0.83742
                  }
                }
              }
              JOINT rRing1
              {
                OFFSET -8.82822 0.546677 1.51678
                CHANNELS 3 Zrotation Xrotation Yrotation
                JOINT rRing2
                {
                  OFFSET -2.60934 -0.819778 -0.0198488
                  CHANNELS 3 Zrotation Xrotation Yrotation
                  End Site
                  {
                    OFFSET -2.33842 -0.294052 0.168128
                  }
                }
              }
              JOINT rPinky1
              {
                OFFSET -8.27202 -0.0477905 -0.4584
                CHANNELS 3 Zrotation Xrotation Yrotation
                JOINT rPinky2
                {
                  OFFSET -1.82734 -0.647385 -0.700984
                  CHANNELS 3 Zrotation Xrotation Yrotation
                  End Site
                  {
                    OFFSET -1.69225 -0.51767 -0.607171
                  }
                }
              }
            }
          }
        }
      }
      JOINT lCollar
      {
        OFFSET 2.68224 19.2634 -4.8768
        CHANNELS 3 Zrotation Xrotation Yrotation
        JOINT lShldr
        {
          OFFSET 8.77824 -1.95073 1.46304
          CHANNELS 3 Zrotation Xrotation Yrotation
          JOINT lForeArm
          {
            OFFSET 28.1742 -1.7115 0.48768
            CHANNELS 3 Zrotation Xrotation Yrotation
            JOINT lHand
            {
              OFFSET 22.5879 0.773209 7.07136
              CHANNELS 3 Zrotation Xrotation Yrotation
              JOINT lThumb1
              {
                OFFSET 1.2192 -0.487915 3.41376
                CHANNELS 3 Zrotation Xrotation Yrotation
                JOINT lThumb2
                {
                  OFFSET 3.37035 -0.52449 3.41376
                  CHANNELS 3 Zrotation Xrotation Yrotation
                  End Site
                  {
                    OFFSET 1.78271 -1.18214 1.43049
                  }
                }
              }
              JOINT lIndex1
              {
                OFFSET 7.75947 0.938293 5.60832
                CHANNELS 3 Zrotation Xrotation Yrotation
                JOINT lIndex2
                {
                  OFFSET 2.54057 -0.884171 1.56538
                  CHANNELS 3 Zrotation Xrotation Yrotation
                  End Site
                  {
                    OFFSET 1.62519 -0.234802 1.16502
                  }
                }
              }
              JOINT lMid1
              {
                OFFSET 8.24714 1.18213 3.41376
                CHANNELS 3 Zrotation Xrotation Yrotation
                JOINT lMid2
                {
                  OFFSET 3.10165 -0.590103 1.0647
                  CHANNELS 3 Zrotation Xrotation Yrotation
                  End Site
                  {
                    OFFSET 2.48547 -0.328903 0.83742
                  }
                }
              }
              JOINT lRing1
              {
                OFFSET 8.82822 0.546677 1.51678
                CHANNELS 3 Zrotation Xrotation Yrotation
                JOINT lRing2
                {
                  OFFSET 2.60934 -0.819778 -0.0198488
                  CHANNELS 3 Zrotation Xrotation Yrotation
                  End Site
                  {
                    OFFSET 2.33842 -0.294052 0.168128
                  }
                }
              }
              JOINT lPinky1
              {
                OFFSET 8.27202 -0.0477905 -0.4584
                CHANNELS 3 Zrotation Xrotation Yrotation
                JOINT lPinky2
                {
                  OFFSET 1.82734 -0.647385 -0.700984
                  CHANNELS 3 Zrotation Xrotation Yrotation
                  End Site
                  {
                    OFFSET 1.69225 -0.51767 -0.607171
                  }
                }
              }
            }
          }
        }
      }
    }
  }
  JOINT rButtock
  {
    OFFSET -8.77824 4.35084 1.2192
    CHANNELS 3 Zrotation Xrotation Yrotation
    JOINT rThigh
    {
      OFFSET 0 -1.70687 -2.19456
      CHANNELS 3 Zrotation Xrotation Yrotation
      JOINT rShin
      {
        OFFSET 0 -36.8199 0.73152
        CHANNELS 3 Zrotation Xrotation Yrotation
        JOINT rFoot
        {
          OFFSET 0.73152 -45.1104 -5.12064
          CHANNELS 3 Zrotation Xrotation Yrotation
          End Site
          {
            OFFSET -1.1221 -3.69964 12.103
          }
        }
      }
    }
  }
  JOINT lButtock
  {
    OFFSET 8.77824 4.35084 1.2192
    CHANNELS 3 Zrotation Xrotation Yrotation
    JOINT lThigh
    {
      OFFSET 0 -1.70687 -2.19456
      CHANNELS 3 Zrotation Xrotation Yrotation
      JOINT lShin
      {
        OFFSET 0 -36.8199 0.73152
        CHANNELS 3 Zrotation Xrotation Yrotation
        JOINT lFoot
        {
          OFFSET -0.73152 -45.1104 -5.12064
          CHANNELS 3 Zrotation Xrotation Yrotation
          End Site
          {
            OFFSET 1.1221 -3.69964 12.103
          }
        }
      }
    }
  }
}
MOTION
Frames:	6
Frame Time:	0.00833333
94.4008 84.4872 -5.14648 82.93 -91.5718 -85.455 -4.29076 8.14679 5.84943 -2.00933 -1.54694 1.58276 7.95418 5.07651 0.872623 -5.42477 -27.1056 -1.17648 -0.0 0.0 0.0 -0.0 0.0 0.0 9.0675e-14 6.46032e-13 8.10048e-15 15.9419 -10.9139 57.2087 -24.9623 -21.0152 52.8159 -0.0161606 -3.62691 -0.510417 -1.39095e-09 7.23239e-10 -9.94356e-10 -2.39918e-09 1.25117e-09 -1.72081e-09 -1.39096e-09 7.23239e-10 -9.94369e-10 7.73091 5.47488 0.417314 -1.39095e-09 7.23238e-10 -9.94353e-10 2.90554 0.965183 0.102902 -1.39094e-09 7.23236e-10 -9.94358e-10 10.2786 0.731801 0.0259123 -1.39096e-09 7.23237e-10 -9.94359e-10 2.22167 -0.733487 -0.20892 9.06224e-14 6.46068e-13 7.85199e-15 -65.8841 52.4803 -0.627068 17.2436 -9.8959 -32.3445 0.105118 9.20742 -1.30539 -1.44913e-09 1.01753e-09 -7.48454e-10 -2.50838e-09 1.76096e-09 -1.2817e-09 -1.44913e-09 1.01753e-09 -7.48442e-10 -7.73091 5.47488 -0.417314 -1.44913e-09 1.01753e-09 -7.48458e-10 -2.90554 0.965183 -0.102902 -1.44913e-09 1.01753e-09 -7.48456e-10 -10.2786 0.731801 -0.0259123 -1.44912e-09 1.01754e-09 -7.48467e-10 -2.22167 -0.733487 0.20892 -2.03217e-16 0.0 -3.88251e-19 3.74403 -3.12429 12.017 0.0286635 19.3957 0.670007 -18.649 -23.6936 -36.3122 2.03217e-16 0.0 3.88251e-19 0.58222 -4.78648 -20.0327 0.085469 22.711 -0.681114 11.6659 -16.2658 29.1541
94.2739 84.4913 -5.08549 95.3225 -92.0032 -97.926 -4.40448 8.02458 5.61312 -1.6701 -1.48307 1.5242 8.08509 5.24236 0.717061 -5.34661 -27.6151 -1.50527 -0.0 0.0 0.0 -0.0 0.0 0.0 1.10527e-13 5.99335e-13 -1.46355e-14 16.0398 -9.40531 55.1928 -25.3293 -21.8278 54.0317 -0.0169828 -3.71756 -0.523211 -1.07783e-09 1.29259e-09 -1.38787e-10 -1.86168e-09 2.2377e-09 -2.40485e-10 -1.07783e-09 1.29259e-09 -1.38801e-10 7.73091 5.47488 0.417314 -1.07783e-09 1.29259e-09 -1.38784e-10 2.90554 0.965183 0.102902 -1.07782e-09 1.29259e-09 -1.3879e-10 10.2786 0.731801 0.0259123 -1.07783e-09 1.29259e-09 -1.3879e-10 2.22167 -0.733487 -0.20892 1.10425e-13 5.99367e-13 -1.48646e-14 -66.9657 51.7951 0.281038 16.6897 -9.347 -31.1392 0.113399 9.51825 -1.35042 -1.25695e-09 6.72789e-10 -9.51268e-10 -2.17813e-09 1.16512e-09 -1.63462e-09 -1.25695e-09 6.72789e-10 -9.51256e-10 -7.73091 5.47488 -0.417314 -1.25695e-09 6.72789e-10 -9.51269e-10 -2.90554 0.965183 -0.102902 -1.25695e-09 6.72791e-10 -9.51269e-10 -10.2786 0.731801 -0.0259123 -1.25694e-09 6.72795e-10 -9.5128e-10 -2.22167 -0.733487 0.20892 -2.03217e-16 0.0 -3.88251e-19 3.83514 -2.91265 11.9037 0.0310969 19.2284 0.670833 -18.9707 -23.9148 -36.661 2.03217e-16 0.0 3.88251e-19 0.623921 -4.90814 -20.2083 0.0879575 22.9019 -0.681509 11.5191 -16.1499 28.9355
94.1667 84.4863 -4.99107 103.508 -92.4489 -106.122 -4.49102 7.89359 5.25859 -1.23325 -1.41573 1.43434 8.11015 5.5479 0.549581 -5.13141 -28.3444 -1.79875 -0.0 0.0 0.0 -0.0 0.0 0.0 1.14791e-13 4.36446e-13 -3.94091e-14 15.5635 -7.44111 53.2307 -25.7348 -22.78 55.5483 -0.0180169 -3.82662 -0.538607 -5.86741e-10 1.77407e-09 9.56172e-10 -1.01761e-09 3.0719e-09 1.65414e-09 -5.86743e-10 1.77407e-09 9.56157e-10 7.73091 5.47488 0.417314 -5.86742e-10 1.77407e-09 9.56173e-10 2.90554 0.965183 0.102902 -5.86733e-10 1.77407e-09 9.56169e-10 10.2786 0.731801 0.0259123 -5.86746e-10 1.77407e-09 9.56171e-10 2.22167 -0.733487 -0.20892 1.14611e-13 4.36466e-13 -3.96203e-14 -68.0793 50.7957 1.18406 16.1194 -8.80735 -29.9079 0.119818 9.74616 -1.38351 -8.10119e-10 1.49608e-10 -1.14991e-09 -1.40803e-09 2.60376e-10 -1.9821e-09 -8.10122e-10 1.49606e-10 -1.14991e-09 -7.73091 5.47488 -0.417314 -8.10121e-10 1.49607e-10 -1.14991e-09 -2.90554 0.965183 -0.102902 -8.10124e-10 1.49607e-10 -1.14991e-09 -10.2786 0.731801 -0.0259123 -8.10113e-10 1.49611e-10 -1.14993e-09 -2.22167 -0.733487 0.20892 -2.03217e-16 0.0 -3.88251e-19 3.96292 -2.71995 11.7789 0.0329901 19.1059 0.672975 -19.2892 -24.118 -37.0096 2.03217e-16 0.0 3.88251e-19 0.709449 -5.00123 -20.3769 0.09014 23.0435 -0.679642 11.3443 -15.9765 28.719
94.0788 84.4726 -4.74795 112.719 -92.5678 -115.264 -4.57377 7.78121 4.92448 -0.813398 -1.35838 1.34917 8.08902 5.86667 0.391247 -4.86958 -29.0893 -2.05358 -0.0 0.0 0.0 -0.0 0.0 0.0 1.07026e-13 2.31849e-13 -5.95112e-14 14.834 -5.25903 51.5948 -26.1124 -23.7312 57.1536 -0.0187637 -3.90328 -0.549432 -8.04371e-11 2.02923e-09 1.90694e-09 -1.46702e-10 3.51416e-09 3.29933e-09 -8.04368e-11 2.02923e-09 1.90693e-09 7.73091 5.47488 0.417314 -8.04387e-11 2.02923e-09 1.90694e-09 2.90554 0.965183 0.102902 -8.04304e-11 2.02923e-09 1.90694e-09 10.2786 0.731801 0.0259123 -8.04398e-11 2.02924e-09 1.90694e-09 2.22167 -0.733487 -0.20892 1.06773e-13 2.31858e-13 -5.97107e-14 -69.1101 49.6847 2.05728 15.5836 -8.31488 -28.7792 0.120412 9.77378 -1.3875 -2.94099e-10 -3.58171e-10 -1.2589e-09 -5.1778e-10 -6.17939e-10 -2.17485e-09 -2.94101e-10 -3.58175e-10 -1.2589e-09 -7.73091 5.47488 -0.417314 -2.94101e-10 -3.58173e-10 -1.2589e-09 -2.90554 0.965183 -0.102902 -2.94103e-10 -3.58174e-10 -1.25891e-09 -10.2786 0.731801 -0.0259123 -2.94094e-10 -3.5817e-10 -1.25891e-09 -2.22167 -0.733487 0.20892 -2.03217e-16 0.0 -3.88251e-19 4.06851 -2.56027 11.6818 0.0343398 19.0244 0.675215 -19.554 -24.274 -37.3046 2.03217e-16 0.0 3.88251e-19 0.788231 -5.05796 -20.4791 0.0918812 23.1469 -0.677073 11.181 -15.8156 28.5156
94.0021 84.4652 -4.50212 117.983 -92.4659 -120.498 -4.67439 7.71541 4.74921 -0.525342 -1.32449 1.30464 8.07955 6.07224 0.263277 -4.64677 -29.6455 -2.26385 -0.0 0.0 0.0 -0.0 0.0 0.0 9.0793e-14 6.0032e-14 -6.82328e-14 14.1001 -3.18081 50.5001 -26.4273 -24.5843 58.6164 -0.0186595 -3.89674 -0.548506 2.78343e-10 1.91965e-09 2.32995e-09 4.71306e-10 3.32486e-09 4.03133e-09 2.78344e-10 1.91965e-09 2.32993e-09 7.73091 5.47488 0.417314 2.78341e-10 1.91965e-09 2.32995e-09 2.90554 0.965183 0.102902 2.78349e-10 1.91965e-09 2.32994e-09 10.2786 0.731801 0.0259123 2.78342e-10 1.91965e-09 2.32995e-09 2.22167 -0.733487 -0.20892 9.05046e-14 6.00322e-14 -6.84316e-14 -69.9654 48.6651 2.89308 15.1413 -7.91331 -27.8801 0.111597 9.48372 -1.34528 1.05648e-10 -6.56705e-10 -1.19275e-09 1.72908e-10 -1.1345e-09 -2.0636e-09 1.05645e-10 -6.56709e-10 -1.19275e-09 -7.73091 5.47488 -0.417314 1.05645e-10 -6.56708e-10 -1.19275e-09 -2.90554 0.965183 -0.102902 1.05643e-10 -6.56709e-10 -1.19275e-09 -10.2786 0.731801 -0.0259123 1.05652e-10 -6.56705e-10 -1.19276e-09 -2.22167 -0.733487 0.20892 -2.03217e-16 0.0 -3.88251e-19 4.09252 -2.4478 11.6514 0.0351331 18.98 0.67634 -19.7134 -24.3549 -37.4924 2.03217e-16 0.0 3.88251e-19 0.809821 -5.0706 -20.4551 0.0930622 23.223 -0.675373 11.0676 -15.7377 28.3359
93.9209 84.464 -4.28085 119.348 -92.1533 -121.874 -4.80951 7.72276 4.80172 -0.422768 -1.32341 1.31818 8.10381 6.12072 0.176601 -4.49692 -29.9324 -2.42073 -0.0 0.0 0.0 -0.0 0.0 0.0 5.56453e-14 -9.10057e-14 -5.84551e-14 13.311 -1.27613 49.952 -26.6996 -25.377 59.8991 -0.0173792 -3.77045 -0.530669 4.47545e-10 1.10798e-09 1.88087e-09 7.64967e-10 1.91995e-09 3.25433e-09 4.47546e-10 1.10798e-09 1.88085e-09 7.73091 5.47488 0.417314 4.47544e-10 1.10798e-09 1.88087e-09 2.90554 0.965183 0.102902 4.47551e-10 1.10798e-09 1.88086e-09 10.2786 0.731801 0.0259123 4.47545e-10 1.10799e-09 1.88087e-09 2.22167 -0.733487 -0.20892 5.53807e-14 -9.10081e-14 -5.86706e-14 -70.6377 47.7991 3.76168 14.8505 -7.65284 -27.302 0.0910053 8.70887 -1.23313 3.65729e-10 -6.44044e-10 -7.98167e-10 6.24576e-10 -1.11315e-09 -1.383e-09 3.65725e-10 -6.44047e-10 -7.98162e-10 -7.73091 5.47488 -0.417314 3.65727e-10 -6.44046e-10 -7.98164e-10 -2.90554 0.965183 -0.102902 3.65725e-10 -6.44047e-10 -7.98169e-10 -10.2786 0.731801 -0.0259123 3.65735e-10 -6.44044e-10 -7.98177e-10 -2.22167 -0.733487 0.20892 -2.03217e-16 0.0 -3.88251e-19 4.00021 -2.39254 11.7059 0.0351666 18.9909 0.676178 -19.7296 -24.3369 -37.5344 2.03217e-16 0.0 3.88251e-19 0.752895 -5.01303 -20.2497 0.0935128 23.2618 -0.674578 11.0128 -15.7732 28.1699
